<svg xmlns="http://www.w3.org/2000/svg" width="682.667" height="682.667" version="1.0" viewBox="0 0 512 512"><g fill="#828282"><path d="M281.5.6c-47.8 7.1-83 38.6-94.7 84.9-2 8-2.3 11.4-2.2 29.5 0 17.7.3 21.5 2.2 28.2 5 18.2 10.2 28.1 26.7 51.3 5.9 8.2 12.1 17.5 13.9 20.5 3.5 6 8.6 17.9 8.6 20.3 0 .7-2 2.8-4.4 4.5-12 8.6-16.3 25.3-10 39.2 2.9 6.4 9 12.9 14.9 15.7l3.5 1.7v8.6c0 14.8 3.6 24 12.1 31.3 8.3 7.2 11.3 7.7 43.4 7.7 26.1 0 28.9-.2 33.9-2 7.5-2.9 13.9-8.8 17.7-16.5 2.8-5.8 3.2-7.7 3.7-17.8l.5-11.3 4.3-2.4c5.2-2.7 10.5-8.2 13.5-14.2 2.7-5.3 3.7-17.6 1.9-23.4-2.4-7.6-9.3-15.8-16.8-20-.7-.4 5.1-14.3 8.3-19.9 1.8-3.3 8.8-13.7 15.5-23 21.3-29.8 27.8-46.4 28.7-74.2.6-17-.1-20.4-4.8-22.8-3.8-2-6.8-1.9-10.6.5-3.8 2.3-4.1 3.4-4.7 22-.8 24.2-5.5 35.9-25.8 64.2-14.7 20.5-20.9 31.7-25.5 46.3l-1 3-38.9.3-39 .2-1.2-4.7c-.7-2.7-3.3-8.9-5.7-14-4.2-8.9-8.1-15-24.9-38.8-9-12.7-14.5-23.6-17.8-35-2-7-2.3-10.2-2.3-26 0-15.7.3-19.1 2.3-26.4 8.9-32.4 32.8-56.5 65-65.3 10.6-2.9 35.4-3.1 45.5-.4 10.2 2.7 18.1 6.1 28.5 12.3 9 5.4 9.5 5.5 13.2 4.4 4.6-1.3 7-4.7 7-9.7 0-4.6-4.5-9.3-14-14.4C332.8 4.6 319.4 1 299 .5c-8-.2-15.8-.1-17.5.1zm62.9 253.8c6.9 2.9 9.6 10.7 6.1 17.6-3.1 6-2.8 6-55.2 6-45.6 0-47.9-.1-51-2-4-2.4-5.4-5-5.5-10.2 0-4.8 2.4-8.6 7.3-11 3.1-1.6 7.6-1.8 49.2-1.8 36.6 0 46.4.3 49.1 1.4zm-13.6 52.3c-.3 6.3-.9 9.6-2.3 11.6-3.5 5.4-5.1 5.7-33.2 5.7-24.1 0-26-.1-29.1-2-4.5-2.7-6.2-7.4-6.2-16.5V298h71.2l-.4 8.7zM113.7 9.1c-4.7 2.8-5.8 11.7-1.8 15.3 1 .9 9.8 7 19.7 13.6 18.7 12.6 20.8 13.4 26.3 10.5 5.5-2.8 6.5-11 1.8-15.2-1.2-1.1-10-7.3-19.5-13.7-14.4-9.6-18-11.6-21-11.6-2.1 0-4.5.5-5.5 1.1zM450.7 19.6c-18.6 12.5-22.7 16.1-22.7 20 0 3.3 2.5 8.1 4.9 9.4 5.1 2.7 8.1 1.4 27.8-12 15.5-10.6 19.3-13.6 20.2-16.2 2.3-6.6-2.2-12.8-9.4-12.8-2.8 0-6.8 2.2-20.8 11.6z"/><path d="M379.8 53.6c-8.6 4.6-5 18.4 4.7 18.4 9.9 0 13.3-14 4.5-18.5-3.6-1.9-5.7-1.8-9.2.1zM291 64.2c-1.4.7-3.3 2.9-4.2 4.8-1.6 3.1-1.8 7-1.8 34.8 0 33.5.3 36.2 5.1 39.6 3.7 2.6 8.6 2.1 12-1.3l2.9-2.9v-35.1c0-34.9 0-35-2.2-37.6-2.7-3.1-8.2-4.1-11.8-2.3zM88.7 117.5c-4.9 4.9-3.7 12.7 2.3 15.8 3.1 1.6 6 1.7 26.3 1.5l22.9-.3 3-3.4c2.6-2.9 3-3.9 2.5-7.5-.4-2.7-1.5-4.9-3.2-6.3-2.6-2.3-3.1-2.3-26.9-2.3H91.3l-2.6 2.5zM447.9 117.9c-4 4-4 8.9 0 13.3l2.9 3.3 21.3.3c11.7.2 22.8.1 24.7-.3 8-1.5 11-10.8 5.3-16.6l-2.9-2.9h-48.4l-2.9 2.9zM291 171.8c-9 4.5-5.9 18.2 4.2 18.2 10.5 0 13.8-14.6 4.3-18.6-4.3-1.8-4.3-1.8-8.5.4zM130.7 211.9c-15.1 10-19.6 13.5-20.7 16-1.7 4.1-.4 8.7 3.3 11.4 5.2 4 7.7 3.1 27.3-10 10-6.7 19.1-13.4 20.4-15 2.9-3.8 2.2-8.8-2-12.6-5.2-4.6-7-4-28.3 10.2zM433.1 200.4c-4.6 2.5-6.3 8.7-3.8 13.3 1.3 2.4 35.4 25.9 39.7 27.5 7.1 2.4 14.4-5.4 12-12.8-1-3-3.9-5.3-20.6-16.4-20.1-13.4-22.3-14.4-27.3-11.6zM23.6 344.5c-5.9 2.1-10.8 6.5-13.8 12.5L7 362.4v54.8c0 59.3-.1 58 5.4 65.3 1.3 1.7 4.8 4.4 7.7 6l5.4 3 21.7.3c13.7.2 23.7-.1 27.2-.8 6.7-1.4 12.9-5.7 16.4-11.5l2.7-4.4 11.4-.1h11.4l49.1 13.1c27 7.2 55.2 14.8 62.6 16.9 31.1 8.9 42.8 9.1 60.5 1.1 9.7-4.4 10.6-5.1 71-48 29.7-21.2 56.7-40.4 60.1-42.7 7.9-5.6 14.9-13.2 17.6-19.1 1.6-3.6 2.2-6.9 2.2-13.3.1-7.7-.2-9.2-3.2-15.2-3.7-7.5-8.8-12.4-16.8-16-6.5-3-19.7-3.1-26.4-.2-2.5 1-21 10.3-41.2 20.7L315.2 391l-5.2-3.5c-9-6.1-12-6.5-44.6-6.5h-29.2l-5.4-4.8c-17-15.4-32.1-23.9-49.4-27.8-6-1.3-10.6-1.5-21.3-1.1-14.8.6-25.1 2.8-39.8 8.8-6.3 2.5-9.7 3.2-17.4 3.6-9.3.5-9.7.4-10.4-1.7-1.2-3.8-7.8-10.2-13-12.6-4.8-2.3-5.9-2.4-28.5-2.3-17.4 0-24.5.3-27.4 1.4zm49.8 20.7c1.4 2 1.6 8.6 1.6 52.5 0 49-.1 50.4-2 52.3-1.9 1.9-3.3 2-21.8 2-16.3 0-20.1-.3-22-1.6l-2.2-1.5V417c0-48.4.1-52 1.8-52.9 1-.6 10.2-1.1 22.4-1.1 20.3 0 20.7 0 22.2 2.2zm105.2 3.3c12.6 2.9 25.1 10.2 38.3 22 11.7 10.6 8.9 9.9 46.1 10.5 31.6.5 32.6.6 35.6 2.7 9.1 6.5 8 21-2 25.7-3 1.4-8.9 1.6-47.1 1.6-46.5 0-47.9.1-50.5 4.9-2 3.9-1.2 9.1 2 12.2l2.9 3 47.8-.3 47.8-.3 5.8-2.9c11.9-6 19-17.4 19.4-31l.2-7.9 37.4-19.3c20.5-10.6 39-19.6 41-19.9 4.7-.9 9.7.8 13.3 4.6 2.5 2.6 2.9 3.8 2.9 8.4 0 3.8-.6 6.2-2 8.2-2 2.6-117 85.5-128.2 92.3-11 6.7-16.9 8.5-27.3 8.4-7.9-.1-12-.9-24-4.3-8-2.2-37.2-10.2-65-17.8l-50.5-13.6-13.7-.5-13.8-.4V380h7.3c8.3 0 14.1-1.4 28.3-6.4 5.5-2 12.9-4.2 16.5-5 8.5-1.9 23.9-1.9 31.5-.1z"/></g></svg>