<?xml version="1.0" standalone="no"?>
<!DOCTYPE svg PUBLIC "-//W3C//DTD SVG 20010904//EN"
 "http://www.w3.org/TR/2001/REC-SVG-20010904/DTD/svg10.dtd">
<svg version="1.0" xmlns="http://www.w3.org/2000/svg"
 width="512.000000pt" height="512.000000pt" viewBox="0 0 512.000000 512.000000"
 preserveAspectRatio="xMidYMid meet">

<g transform="translate(0.000000,512.000000) scale(0.100000,-0.100000)"
fill="#828282" stroke="none">
<path d="M2815 5114 c-478 -71 -830 -386 -947 -849 -20 -80 -23 -114 -22 -295
0 -177 3 -215 22 -282 50 -182 102 -281 267 -513 59 -82 121 -175 139 -205 35
-60 86 -179 86 -203 0 -7 -20 -28 -44 -45 -120 -86 -163 -253 -100 -392 29
-64 90 -129 149 -157 l35 -17 0 -86 c0 -148 36 -240 121 -313 83 -72 113 -77
434 -77 261 0 289 2 339 20 75 29 139 88 177 165 28 58 32 77 37 178 l5 113
43 24 c52 27 105 82 135 142 27 53 37 176 19 234 -24 76 -93 158 -168 200 -7
4 51 143 83 199 18 33 88 137 155 230 213 298 278 464 287 742 6 170 -1 204
-48 228 -38 20 -68 19 -106 -5 -38 -23 -41 -34 -47 -220 -8 -242 -55 -359
-258 -642 -147 -205 -209 -317 -255 -463 l-10 -30 -389 -3 -390 -2 -12 47 c-7
27 -33 89 -57 140 -42 89 -81 150 -249 388 -90 127 -145 236 -178 350 -20 70
-23 102 -23 260 0 157 3 191 23 264 89 324 328 565 650 653 106 29 354 31 455
4 102 -27 181 -61 285 -123 90 -54 95 -55 132 -44 46 13 70 47 70 97 0 46 -45
93 -140 144 -192 104 -326 140 -530 145 -80 2 -158 1 -175 -1z m629 -2538 c69
-29 96 -107 61 -176 -31 -60 -28 -60 -552 -60 -456 0 -479 1 -510 20 -40 24
-54 50 -55 102 0 48 24 86 73 110 31 16 76 18 492 18 366 0 464 -3 491 -14z
m-136 -523 c-3 -63 -9 -96 -23 -116 -35 -54 -51 -57 -332 -57 -241 0 -260 1
-291 20 -45 27 -62 74 -62 165 l0 75 356 0 356 0 -4 -87z"/>
<path d="M1137 5029 c-47 -28 -58 -117 -18 -153 10 -9 98 -70 197 -136 187
-126 208 -134 263 -105 55 28 65 110 18 152 -12 11 -100 73 -195 137 -144 96
-180 116 -210 116 -21 0 -45 -5 -55 -11z"/>
<path d="M4507 4924 c-186 -125 -227 -161 -227 -200 0 -33 25 -81 49 -94 51
-27 81 -14 278 120 155 106 193 136 202 162 23 66 -22 128 -94 128 -28 0 -68
-22 -208 -116z"/>
<path d="M3798 4584 c-86 -46 -50 -184 47 -184 99 0 133 140 45 185 -36 19
-57 18 -92 -1z"/>
<path d="M2910 4478 c-14 -7 -33 -29 -42 -48 -16 -31 -18 -70 -18 -348 0 -335
3 -362 51 -396 37 -26 86 -21 120 13 l29 29 0 351 c0 349 0 350 -22 376 -27
31 -82 41 -118 23z"/>
<path d="M887 3945 c-49 -49 -37 -127 23 -158 31 -16 60 -17 263 -15 l229 3
30 34 c26 29 30 39 25 75 -4 27 -15 49 -32 63 -26 23 -31 23 -269 23 l-243 0
-26 -25z"/>
<path d="M4479 3941 c-40 -40 -40 -89 0 -133 l29 -33 213 -3 c117 -2 228 -1
247 3 80 15 110 108 53 166 l-29 29 -242 0 -242 0 -29 -29z"/>
<path d="M2910 3402 c-90 -45 -59 -182 42 -182 105 0 138 146 43 186 -43 18
-43 18 -85 -4z"/>
<path d="M1307 3001 c-151 -100 -196 -135 -207 -160 -17 -41 -4 -87 33 -114
52 -40 77 -31 273 100 100 67 191 134 204 150 29 38 22 88 -20 126 -52 46 -70
40 -283 -102z"/>
<path d="M4331 3116 c-46 -25 -63 -87 -38 -133 13 -24 354 -259 397 -275 71
-24 144 54 120 128 -10 30 -39 53 -206 164 -201 134 -223 144 -273 116z"/>
<path d="M236 1675 c-59 -21 -108 -65 -138 -125 l-28 -54 0 -548 c0 -593 -1
-580 54 -653 13 -17 48 -44 77 -60 l54 -30 217 -3 c137 -2 237 1 272 8 67 14
129 57 164 115 l27 44 114 1 114 0 491 -131 c270 -72 552 -148 626 -169 311
-89 428 -91 605 -11 97 44 106 51 710 480 297 212 567 404 601 427 79 56 149
132 176 191 16 36 22 69 22 133 1 77 -2 92 -32 152 -37 75 -88 124 -168 160
-65 30 -197 31 -264 2 -25 -10 -210 -103 -412 -207 l-366 -187 -52 35 c-90 61
-120 65 -446 65 l-292 0 -54 48 c-170 154 -321 239 -494 278 -60 13 -106 15
-213 11 -148 -6 -251 -28 -398 -88 -63 -25 -97 -32 -174 -36 -93 -5 -97 -4
-104 17 -12 38 -78 102 -130 126 -48 23 -59 24 -285 23 -174 0 -245 -3 -274
-14z m498 -207 c14 -20 16 -86 16 -525 0 -490 -1 -504 -20 -523 -19 -19 -33
-20 -218 -20 -163 0 -201 3 -220 16 l-22 15 0 519 c0 484 1 520 18 529 10 6
102 11 224 11 203 0 207 0 222 -22z m1052 -33 c126 -29 251 -102 383 -220 117
-106 89 -99 461 -105 316 -5 326 -6 356 -27 91 -65 80 -210 -20 -257 -30 -14
-89 -16 -471 -16 -465 0 -479 -1 -505 -49 -20 -39 -12 -91 20 -122 l29 -30
478 3 478 3 58 29 c119 60 190 174 194 310 l2 79 374 193 c205 106 390 196
410 199 47 9 97 -8 133 -46 25 -26 29 -38 29 -84 0 -38 -6 -62 -20 -82 -20
-26 -1170 -855 -1282 -923 -110 -67 -169 -85 -273 -84 -79 1 -120 9 -240 43
-80 22 -372 102 -650 178 l-505 136 -137 5 -138 4 0 374 0 374 73 0 c83 0 141
14 283 64 55 20 129 42 165 50 85 19 239 19 315 1z"/>
</g>
</svg>
