<svg width="679" height="678" fill="none" xmlns="http://www.w3.org/2000/svg"><ellipse rx="20.035" ry="19.496" transform="matrix(1 .00246 -.0026 1 341.085 322.546)" fill="#0cbea7"/><path d="m314.135 0 4.736 45.944 21.772 6.111 21.943-6.003 4.975-45.92L314.135 0Zm42.841 14.948-25.572-.063.556 5.734 24.431.06-1.937 17.218-13.629 3.1v.034h-.153l-13.724-3.202-.812-8.799 6.637.017.475 4.422 7.439 1.701 7.476-1.664.853-7.216-23.22-.057-1.737-16.901 33.544.082-.627 5.534ZM490.135 52l4.736 45.944 21.842 6.112 21.873-6.004 4.975-45.92L490.135 52Zm43.538 9.391-.683 5.488-16.056 5.681-.042.012 15.513.038-1.825 17.008-13.671 3.297-13.737-3.422-.868-8.578 6.803.016.434 4.446 7.314 1.562 7.615-1.769.533-7.147-23.137-.115v-.012l-.028.012-.487-5.374 15.611-5.382.905-.31-17.099-.043-.793-5.49 33.698.082ZM643.144 193.407c2.656.007 5.206-.9 7.088-2.521 1.883-1.62 2.944-3.822 2.95-6.121.006-2.298-1.044-4.505-2.918-6.135s-4.419-2.549-7.075-2.556l-20.032-.049c-2.655-.007-5.203.899-7.085 2.519-1.881 1.62-2.942 3.82-2.948 6.118-.006 2.297 1.043 4.502 2.916 6.131 1.873 1.629 4.417 2.548 7.072 2.555-2.656-.007-5.206.9-7.089 2.521-1.883 1.62-2.944 3.822-2.949 6.121-.006 2.298 1.043 4.505 2.917 6.135 1.874 1.63 4.419 2.55 7.076 2.556-1.981-.006-3.919.497-5.569 1.444-1.651.948-2.939 2.297-3.702 3.879a7.595 7.595 0 0 0-.587 5.005c.381 1.683 1.33 3.23 2.727 4.446 1.397 1.216 3.179 2.047 5.121 2.387 1.941.34 3.956.175 5.788-.476 1.832-.65 3.4-1.757 4.505-3.179 1.106-1.422 1.699-3.095 1.704-4.809l.068-25.995 10.022.024Zm0 0c-1.98-.005-3.917.499-5.565 1.446-1.649.948-2.936 2.298-3.697 3.878a7.584 7.584 0 0 0-.583 5.004c.382 1.681 1.331 3.226 2.728 4.441 1.397 1.215 3.178 2.044 5.119 2.383 1.941.339 3.954.173 5.785-.478s3.397-1.758 4.501-3.179c1.103-1.422 1.695-3.095 1.699-4.808.006-2.298-1.043-4.503-2.916-6.132-1.873-1.629-4.417-2.548-7.071-2.555ZM25.586 438.492c-.05.117-.025.065 0 0Zm20.822-9.371c-1.68-.005-3.337.492-4.846 1.45-.489-1.29-.995-2.417-1.077-3.262-.097-.986-.204-1.571-.084-2.74.12-1.17.65-2.826.642-2.945-.008-.119-.115-.715-1.192-.728-1.077-.014-2.004.266-2.113.634a16.468 16.468 0 0 0-.448 2.067c-.195 1.267-2.168 5.789-3.284 8.147-.365-.921-.672-1.734-.737-2.384-.097-.986-.204-1.571-.085-2.741.12-1.169.65-2.825.643-2.944-.008-.119-.115-.715-1.191-.728-1.077-.014-2.005.265-2.114.633-.11.368-.229 1.234-.448 2.068-.22.833-2.85 8.365-3.54 10.323a61.293 61.293 0 0 1-.874 2.338c-.034.086-.059.14-.076.183.026-.054.043-.108.043-.086-.185.465-.295.725-.295.725v.011c-.142.346-.302.66-.377.659-.05 0-.156-.91.03-2.155.4-2.62 1.337-6.69 1.329-6.83-.008-.076.177-.78-.606-1.161-.76-.359-1.036.236-1.103.236-.067 0-.117.216-.117.216s.855-4.59-1.607-4.596c-1.536-.004-3.679 2.179-4.734 4.158-.66.464-2.09 1.468-3.596 2.536-.577.41-1.171.831-1.732 1.231-.041-.055-.074-.109-.116-.163-2.977-4.145-8.486-7.082-8.237-12.638.088-2.025.645-7.341 10.643-13.771 8.195-5.265 14.732-3.798 15.85-.568 1.607 4.607-3.532 13.161-12.03 14.375-3.24.458-4.938-1.171-5.362-1.779-.44-.64-.508-.672-.675-.554-.276.195-.102.758-.003 1.094.248.856 1.288 2.375 3.063 3.138 1.56.664 5.355 1.042 9.952-1.254 5.164-2.565 9.197-9.735 8.036-15.749-1.183-6.111-8.985-8.134-16.376-4.752-4.404 2.015-9.168 5.187-12.601 9.327C.885 415.07.224 419.369.486 421.167c.935 6.381 7.7 10.557 10.405 13.639-.134.098-.26.184-.377.27-1.362.874-6.537 4.37-7.84 8.071-1.472 4.199.223 7.214 1.34 7.628 3.485 1.265 7.063-.99 8.992-4.7 1.929-3.71 1.709-8.562.83-10.774-.009-.032-.025-.054-.034-.087.352-.27.711-.539 1.071-.809a69.331 69.331 0 0 1 1.965-1.436c-.337 1.169-.583 2.576-.713 4.612-.157 2.382.595 5.471 1.577 6.686.432.532.957.544 1.283.545 1.152.003 1.673-1.231 2.252-2.702.714-1.796 1.345-3.885 1.345-3.885s-.799 5.652 1.346 5.657c.784.002 1.572-1.307 1.926-1.977v.011s.016-.044.058-.13c.084-.163.126-.26.126-.26v-.032c.32-.704 1.016-2.316 2.066-4.977 1.361-3.441 2.666-7.737 2.666-7.737.122.945.293 1.879.51 2.795.231 1.03.72 2.157 1.11 3.252-.319.562-.512.887-.512.887.001.008.004.016.009.021a34.04 34.04 0 0 1-.83 1.352c-1.072 1.644-2.347 3.525-2.515 4.066-.202.639-.153 1.115.23 1.485.283.282.784.326 1.309.273.96-.084 1.637-.385 1.963-.58a6.492 6.492 0 0 0 1.689-1.143c1.046-.994 1.684-2.422 1.63-4.307-.03-1.04-.286-2.08-.601-3.055.092-.174.193-.357.285-.541 1.66-3.126 2.946-6.558 2.946-6.558.123.945.293 1.879.51 2.795.199.878.588 1.843.944 2.786-1.556 1.631-2.52 3.524-2.858 4.769-.624 2.305-.142 3.346.767 3.587.409.109.994-.139 1.429-.376a6.252 6.252 0 0 0 1.805-1.198c1.046-.993 2.059-2.388 1.997-4.283-.023-.856-.204-1.712-.444-2.536 1.312-.711 3.015-1.097 5.185-.767 4.646.716 5.546 4.487 5.367 6.057a4.054 4.054 0 0 1-1.484 2.704c-.327.259-.427.356-.403.551.041.282.192.271.467.207.385-.086 2.44-1.272 2.54-4.185.143-3.682-2.575-7.739-7.41-7.719l.003.002ZM10.54 444.705c-1.541 2.173-3.697 2.99-4.621 2.295-.992-.752-.59-3.955 1.31-6.27 1.155-1.405 2.643-2.701 3.63-3.5.226-.173.553-.432.954-.745.067-.054.1-.075.1-.075.076-.065.16-.119.243-.184.684 3.294.009 6.195-1.616 8.476v.003Zm11.242-9.872c-.54 1.699-1.677 6.029-2.36 5.8-.584-.197-.935-3.501-.1-6.748.422-1.634 1.312-3.582 1.84-4.339.845-1.221 1.773-1.609 1.989-1.121.29.64-1.033 5.348-1.37 6.408Zm9.25 5.763c-.225.151-.434.248-.534.172-.075-.054.092-.26.092-.26s1.165-1.61 1.626-2.346a94.1 94.1 0 0 0 .913-1.503c0 .054.008.108.008.173-.016 1.939-1.454 3.246-2.107 3.764h.003Zm7.15-2.094c-.166-.152-.14-.661.423-2.241.22-.617.722-1.655 1.594-2.65.097.378.15.772.155 1.171-.015 2.436-1.362 3.343-2.172 3.72ZM606.135 464 606 515.99l53.426.131.135-51.989-53.426-.132Zm28.969 40.619c-.013 5.06-3.072 7.362-7.52 7.351-4.019-.01-6.339-2.035-7.526-4.487l4.097-2.392c.784 1.36 1.496 2.51 3.225 2.515 1.646.004 2.697-.62 2.703-3.069l.044-16.607 5.02.013-.043 16.676Zm11.858 7.398c-4.662-.011-7.674-2.177-9.133-5.012l4.096-2.288c1.069 1.709 2.473 2.977 4.941 2.983 2.075.005 3.414-1.001 3.417-2.405.005-1.671-1.353-2.267-3.652-3.259l-1.251-.525c-3.622-1.506-6.014-3.403-6.003-7.384.009-3.667 2.89-6.445 7.362-6.434 3.196.008 5.483 1.093 7.122 3.928l-3.918 2.428c-.855-1.5-1.784-2.094-3.227-2.097-1.466-.004-2.399.899-2.402 2.083-.004 1.462.925 2.056 3.081 2.978l1.251.526c4.264 1.786 6.657 3.613 6.646 7.698-.011 4.387-3.571 6.792-8.33 6.78ZM71.896 547.906c0 .215-.249.386-.561.386-.356.031-.603-.142-.602-.389 0-.215.248-.386.56-.385.324-.032.604.141.603.388Zm-3.349-.492c-.076.215.14.463.462.528.28.108.603.001.668-.213.066-.215-.138-.463-.461-.561-.28-.076-.593.031-.669.246Zm4.762-.171c-.313.075-.529.278-.497.526.032.215.311.355.635.281.312-.075.528-.279.496-.494-.031-.204-.322-.344-.634-.313Zm7.194-41.178c-14.94-.037-26.397 11.255-26.436 26.166-.031 11.922 7.46 22.143 18.19 25.76 1.379.251 1.865-.598 1.867-1.296.002-.667-.02-4.344-.015-6.601 0 0-7.544 1.594-9.115-3.226 0 0-1.22-3.132-2.984-3.942 0 0-2.462-1.694.177-1.655 0 0 2.681.221 4.15 2.783 2.348 4.156 6.304 2.972 7.847 2.267.252-1.72.955-2.911 1.733-3.619-6.02-.681-12.093-1.567-12.066-11.909.008-2.956.83-4.438 2.559-6.326-.279-.699-1.187-3.583.299-7.299 2.253-.693 7.424 2.921 7.424 2.921a25.41 25.41 0 0 1 6.767-.897c2.294.006 4.61.323 6.762.931 0 0 5.19-3.6 7.44-2.885 1.466 3.734.543 6.603.261 7.301 1.718 1.907 2.77 3.393 2.763 6.338-.028 10.375-6.374 11.187-12.397 11.849.989.852 1.825 2.467 1.818 4.993-.01 3.623-.053 8.106-.055 8.987-.002.699.491 1.549 1.86 1.306 10.78-3.543 18.11-13.727 18.141-25.649.039-14.911-12.05-26.261-26.99-26.298Zm-15.995 37.039c-.14.107-.108.354.075.559.171.173.419.248.56.109.14-.107.108-.354-.075-.559-.172-.173-.42-.248-.56-.109Zm-1.16-.874c-.076.14.031.312.246.42.172.108.388.076.464-.074.075-.14-.032-.312-.247-.42-.215-.065-.388-.033-.464.074Zm3.48 3.836c-.173.139-.11.462.138.667.247.248.56.281.7.109.14-.139.076-.462-.139-.667-.236-.248-.56-.281-.7-.109Zm-1.224-1.583c-.173.107-.174.386-.002.634s.462.356.602.249c.173-.14.174-.419.002-.667-.15-.247-.43-.356-.602-.216ZM325.04 660.104c5.791.398 7.029.262 7.026 1.403-.006 2.321-7.823 2.309-7.817.157.002-.591.395-1.09.791-1.56Zm3.368-13.528c-3.851-.009-4.038 5.151-.103 5.161 3.877.009 3.795-5.152.103-5.161Zm38.138-15.874-.106 40.849a5.495 5.495 0 0 1-1.687 3.935 5.802 5.802 0 0 1-4.051 1.621l-41.978-.103a5.803 5.803 0 0 1-4.043-1.642 5.496 5.496 0 0 1-1.667-3.943l.107-40.849a5.493 5.493 0 0 1 1.687-3.934 5.803 5.803 0 0 1 4.051-1.622l41.978.104a5.802 5.802 0 0 1 4.043 1.641 5.493 5.493 0 0 1 1.666 3.943Zm-27.091 7.977c-.004 1.681.992 2.657 2.719 2.661 1.758.005 2.761-.966 2.765-2.648.005-1.681-.991-2.591-2.749-2.596-1.727-.004-2.731.903-2.735 2.583Zm-2.616 5.295-5.909-.014c-2.979-.768-9.725-.587-9.74 5.401-.006 2.182 1.111 3.716 2.594 4.429-1.876 1.663-2.764 2.447-2.767 3.561-.002.797.329 1.535 1.328 1.948-1.063.972-1.673 1.676-1.677 3.004-.004 2.329 2.083 3.686 7.568 3.7 5.273.013 8.337-1.896 8.346-5.287.011-4.255-3.356-4.107-11.29-4.598l1.004-1.556c2.025.555 8.845.745 8.86-4.902.003-1.356-.57-2.301-1.113-2.982l2.788-.199.008-2.505Zm10.025 12.772-1.55-.21c-.455-.061-.485-.118-.484-.592l.032-12.238-6.273-.015-.339 2.386c1.877.649 2.026.569 2.025 1.185l-.023 8.674c-.002.652-.038.531-2.029.792l-.006 2.328 8.636.021.011-2.331Zm11.979 1.209-.812-2.598c-4.886 1.771-4.51-1.452-4.509-1.953l.018-7.047 4.514.012.008-2.949-4.272-.011c-.342-.001-.239.292-.227-4.483l-2.883-.007c-.341 3.213-1.405 4.508-4.067 4.796l-.007 2.625c2.441.006 2.364-.092 2.363.301l-.02 7.725c-.009 3.333 1.35 4.751 4.956 4.76 1.724.004 3.633-.551 4.938-1.171ZM352.581 418.167c1.376-.667 3.285-1.245 3.285-1.245s-5.434.698-10.839 1.016c-6.613.389-13.717.468-17.284.13-8.438-.797 4.634-2.998 4.634-2.998s-5.069-.24-11.317 1.892c-7.371 2.53 18.252 3.686 31.521 1.205Zm-11.991-3.197c-2.667-4.253-11.667-7.989 0-14.523 14.554-8.148 7.091-13.447 7.091-13.447 3.018 8.417-10.615 10.967-15.543 16.196-3.356 3.576 1.643 7.411 8.452 11.774Zm16.09-17.551c.014 0-24.598 4.363-12.847 13.965 3.468 2.829-.912 5.379-.912 5.379s8.803-3.227 4.76-7.262c-3.777-3.765-6.67-5.637 8.999-12.082Zm-.856 26.944a1.373 1.373 0 0 1-.281.259c18.014-3.357 11.387-11.843 2.78-9.692-.465.121-.866.34-1.151.628a13.245 13.245 0 0 1 1.544-.299c4.353-.648 10.601 4.134-2.892 9.104Zm6.621 6.206s2.036 1.185-2.232 2.111c-8.129 1.743-33.809 2.271-40.942.07-2.569-.787 2.247-1.893 3.763-2.122 1.573-.239 2.485-.199 2.485-.199-2.85-1.424-18.435 2.799-7.918 4.004 28.675 3.307 52.286-1.484 44.844-3.864Zm-31.388-4.124c-11.05 2.191 6.725 6.713 20.793 2.44a31.674 31.674 0 0 1-3.959-1.374c-6.276.846-9.182.906-14.883.448-4.703-.379-1.951-1.514-1.951-1.514Zm25.244 9.682c-11.049 1.474-24.683 1.305-32.756.358 0-.01 1.657.966 10.165 1.355 12.946.588 32.827-.329 33.29-4.672 0 0-.899 1.644-10.699 2.959Zm-6.121-13.965c-8.312 1.135-13.128 1.105-19.207.657-4.704-.349-1.629-1.962-1.629-1.962-12.187 2.868 6.767 6.116 23.798 2.58-1.101-.276-2.109-.71-2.962-1.275ZM631.738 351.596l10.846 28.584c-7.587-3.537-12.812-11.022-12.812-19.68a21.1 21.1 0 0 1 1.966-8.904Zm36.106 7.804c0-2.704-1.004-4.576-1.87-6.036-1.154-1.799-2.233-3.331-2.233-5.131 0-2.015 1.582-3.886 3.815-3.886.096 0 .192.01.299.02-4.05-3.568-9.435-5.748-15.355-5.748-7.939 0-14.928 3.918-18.999 9.861.534.021 1.037.031 1.464.031 2.372 0 6.059-.278 6.059-.278 1.229-.072 1.368 1.666.149 1.8 0 0-1.228.133-2.596.205l8.281 23.691 4.98-14.354-3.537-9.337c-1.229-.072-2.383-.205-2.383-.205-1.229-.072-1.079-1.872.139-1.8 0 0 3.75.278 5.984.278 2.372 0 6.058-.278 6.058-.278 1.229-.072 1.368 1.666.15 1.8 0 0-1.229.133-2.597.205l8.217 23.516 2.266-7.29c.961-3.023 1.709-5.193 1.709-7.064Zm-14.949 3.013-6.817 19.073c2.041.576 4.189.895 6.422.895 2.65 0 5.182-.442 7.544-1.245a1.556 1.556 0 0 1-.16-.298l-6.989-18.425Zm19.555-12.411c.096.699.149 1.439.149 2.252 0 2.221-.427 4.709-1.731 7.835l-6.945 19.32c6.764-3.794 11.305-10.837 11.305-18.909 0-3.804-1.004-7.383-2.778-10.498ZM679 360.5c0 14.066-11.893 25.5-26.5 25.5-14.618 0-26.5-11.444-26.5-25.5 0-14.066 11.882-25.5 26.5-25.5 14.607 0 26.5 11.434 26.5 25.5Zm-1.218 0c0-13.418-11.348-24.328-25.282-24.328-13.945 0-25.282 10.91-25.282 24.328s11.348 24.328 25.282 24.328c13.945 0 25.282-10.91 25.282-24.328ZM78.028 170.181c-.91-3.517-2.638-6.169-6.317-6.169h-4.744v5.395c0 4.189-3.69 7.718-7.902 7.718H46.43c-3.455 0-6.318 2.846-6.318 6.182v11.588c0 3.301 2.981 5.237 6.318 6.181 3.998 1.127 7.843 1.332 12.634 0 3.182-.888 6.317-2.675 6.317-6.181v-4.633H52.76v-1.548h18.952c3.68 0 5.04-2.47 6.317-6.17 1.325-3.814 1.266-7.479 0-12.363Zm-18.17 23.166c1.313 0 2.377 1.036 2.377 2.311 0 1.286-1.064 2.322-2.377 2.322-1.302 0-2.378-1.047-2.378-2.322.012-1.287 1.076-2.311 2.378-2.311ZM45.85 175.6h12.634c3.514 0 6.317-2.789 6.317-6.181v-11.6c0-3.301-2.886-5.772-6.317-6.329-4.235-.672-8.837-.638-12.634.011-5.347.911-6.317 2.812-6.317 6.329v4.633H52.18v1.549H34.79c-3.68 0-6.897 2.128-7.903 6.169-1.159 4.634-1.206 7.525 0 12.363.9 3.597 3.04 6.17 6.72 6.17h4.341v-5.555c0-4.019 3.608-7.559 7.903-7.559Zm-.793-16.233c-1.313 0-2.378-1.036-2.378-2.311.012-1.286 1.065-2.322 2.378-2.322 1.301 0 2.378 1.047 2.378 2.322 0 1.275-1.065 2.311-2.378 2.311ZM203.29 606.527a48.29 48.29 0 0 0-1.677-.58c.093-.422.176-.843.259-1.264 1.273-6.784.435-12.237-2.391-14.036-2.723-1.718-7.163.069-11.656 4.372-.445.421-.88.865-1.294 1.309a32.296 32.296 0 0 0-.859-.877c-4.71-4.599-9.43-6.534-12.256-4.724-2.712 1.73-3.52 6.864-2.381 13.284.114.638.238 1.264.383 1.901-.663.205-1.315.433-1.926.672-5.527 2.106-9.492 5.43-9.492 8.868 0 3.551 4.223 7.114 9.969 9.277.465.171.931.342 1.407.49a45.836 45.836 0 0 0-.414 2.049c-1.087 6.317-.238 11.326 2.474 13.045 2.795 1.776 7.495-.046 12.07-4.451a32.57 32.57 0 0 0 1.087-1.104c.456.489.932.956 1.408 1.411 4.43 4.189 8.809 5.886 11.511 4.167 2.795-1.776 3.706-7.16 2.526-13.717a51.157 51.157 0 0 0-.311-1.537c.331-.102.652-.216.973-.33 5.973-2.174 10.3-5.692 10.3-9.3 0-3.449-4.079-6.796-9.71-8.925Zm-14.005-9.664c3.85-3.688 7.442-5.134 9.078-4.098 1.749 1.104 2.422 5.566 1.325 11.429-.073.387-.145.762-.238 1.138a48.628 48.628 0 0 0-6.967-1.207 56.87 56.87 0 0 0-4.41-6.044c.404-.421.798-.82 1.212-1.218Zm-11.977 24.497c.528.99 1.066 1.98 1.635 2.948a43.044 43.044 0 0 1-4.803-.854 56.692 56.692 0 0 1 1.688-5.065 77.48 77.48 0 0 0 1.48 2.971Zm-3.137-13.695a47.123 47.123 0 0 1 4.721-.887 68.826 68.826 0 0 0-1.595 2.891 69.03 69.03 0 0 0-1.469 2.96 57.648 57.648 0 0 1-1.657-4.964Zm2.837 7.844a73.965 73.965 0 0 1 2.215-4.622 69.867 69.867 0 0 1 2.526-4.428 59.145 59.145 0 0 1 4.751-.194c1.615 0 3.209.069 4.751.194a81.1 81.1 0 0 1 2.516 4.405 80.764 80.764 0 0 1 2.246 4.599 79.492 79.492 0 0 1-4.741 9.084 59.37 59.37 0 0 1-4.772.182 70.51 70.51 0 0 1-4.72-.159 70.429 70.429 0 0 1-2.547-4.44 74.33 74.33 0 0 1-2.225-4.621Zm18.695 5.828a84.188 84.188 0 0 0 1.511-3.039 56.189 56.189 0 0 1 1.749 5.042 41.578 41.578 0 0 1-4.865.911 78.486 78.486 0 0 0 1.605-2.914Zm1.49-8.708a95.505 95.505 0 0 0-1.501-2.983 74.733 74.733 0 0 0-1.584-2.868c1.667.227 3.261.535 4.752.91a53.49 53.49 0 0 1-1.667 4.941Zm-10.672-12.807a49.388 49.388 0 0 1 3.064 4.076 61.42 61.42 0 0 0-6.159 0 56.467 56.467 0 0 1 3.095-4.076Zm-12.008-6.978c1.739-1.115 5.6.479 9.668 4.44.259.25.518.524.787.797a57.132 57.132 0 0 0-4.441 6.044 50.02 50.02 0 0 0-6.956 1.184 45.111 45.111 0 0 1-.362-1.764c-.973-5.51-.332-9.665 1.304-10.701Zm-2.536 30.007a25.576 25.576 0 0 1-1.284-.444c-2.205-.763-4.71-1.969-6.521-3.552-1.046-.797-1.75-2.026-1.946-3.403 0-2.083 3.271-4.747 7.991-6.557.59-.228 1.19-.433 1.791-.626a64.45 64.45 0 0 0 2.536 7.24 66.049 66.049 0 0 0-2.567 7.342Zm12.07 11.155c-1.708 1.719-3.685 3.085-5.839 4.019a4.206 4.206 0 0 1-3.654.148c-1.646-1.047-2.329-5.066-1.397-10.473.114-.637.238-1.275.383-1.901a47.39 47.39 0 0 0 7.029 1.116 59.418 59.418 0 0 0 4.471 6.078c-.331.353-.662.695-.993 1.013Zm2.536-2.766a53.019 53.019 0 0 1-3.137-4.132c.994.046 2.019.069 3.054.069a57.19 57.19 0 0 0 3.147-.08 48.434 48.434 0 0 1-3.064 4.143Zm13.529 3.415c-.093 1.389-.714 2.687-1.708 3.563-1.646 1.048-5.155-.318-8.943-3.893-.435-.41-.87-.854-1.315-1.309a55.862 55.862 0 0 0 4.368-6.101 46.779 46.779 0 0 0 7.06-1.196c.104.467.197.934.28 1.389.507 2.459.59 5.02.258 7.547Zm1.884-12.237c-.29.103-.579.205-.88.296a61.181 61.181 0 0 0-2.639-7.262 61.16 61.16 0 0 0 2.536-7.16c.538.17 1.056.352 1.553.535 4.823 1.821 8.208 4.53 8.208 6.602 0 2.231-3.612 5.111-8.778 6.989Zm-15.496-1.707c2.619 0 4.741-2.334 4.741-5.214 0-2.88-2.122-5.213-4.741-5.213-2.619 0-4.741 2.333-4.741 5.213s2.122 5.214 4.741 5.214ZM21.641 304.877h9.718L26.5 294.45l-4.859 10.427ZM26.5 278 0 286.47l4.055 31.385L26.5 329l22.445-11.145L53 286.47 26.5 278Zm16.604 38.91h-6.198l-3.341-7.445H19.461l-3.342 7.445H9.91L26.5 283.635l16.604 33.275ZM149.223 40h-9.098L133.5 51.776 127.821 40H107l26.5 51L160 40h-10.777Zm-35.633 4.253h6.364L133.5 70.597l13.534-26.344h6.365L133.5 82.56l-19.91-38.307ZM542.488 641a5.276 5.276 0 0 1-2.301-.526l-7.319-3.694c-1.091-.526-.558-.708-.202-.81 1.459-.435 1.756-.526 3.31-1.285.166-.081.379-.051.545.041l5.623 2.843a.785.785 0 0 0 .676 0l21.91-10.788a.587.587 0 0 0 .332-.506v-21.576c0-.212-.131-.404-.344-.516l-21.898-10.778a.792.792 0 0 0-.676 0l-21.885 10.788a.58.58 0 0 0-.344.516v21.566c0 .203.13.405.344.496l6.002 2.955c3.262 1.387 5.255-.243 5.255-1.892v-21.293c0-.303.284-.536.64-.536h2.776c.344 0 .641.233.641.536v21.303c0 3.704-2.373 5.829-6.489 5.829-1.269 0-2.266 0-5.041-1.174l-5.742-2.823c-1.423-.699-2.301-2.004-2.301-3.411v-21.566c0-1.396.878-2.712 2.301-3.41l21.886-10.788c1.388-.668 3.226-.668 4.602 0l21.91 10.798c1.423.698 2.301 2.004 2.301 3.41v21.566c0 1.397-.878 2.702-2.301 3.411l-21.91 10.788a5.234 5.234 0 0 1-2.301.526Zm17.687-21.262c0-4.038-3.203-5.111-9.929-5.87-6.809-.769-7.497-1.164-7.497-2.52 0-1.123.581-2.621 5.623-2.621 4.496 0 6.156.83 6.844 3.421.06.243.32.425.617.425h2.847a.676.676 0 0 0 .463-.172.517.517 0 0 0 .166-.415c-.439-4.463-3.915-6.538-10.937-6.538-6.252 0-9.976 2.247-9.976 6.022 0 4.088 3.713 5.222 9.703 5.728 7.177.597 7.734 1.497 7.734 2.702 0 2.084-1.969 2.975-6.583 2.975-5.801 0-7.07-1.245-7.497-3.704-.048-.263-.309-.455-.629-.455h-2.835c-.356 0-.629.243-.629.536 0 3.147 2.005 6.902 11.601 6.902 6.928-.01 10.914-2.348 10.914-6.416ZM343 280.143h-3.333v-8.572H343v8.572ZM373 263v25.714h-30V293h-13.333v-4.286H313V263h60Zm-43.333 4.286h-13.334v17.143H323v-12.858h3.333v12.858h3.334v-17.143Zm16.666 0H333v21.428h6.667v-4.285h6.666v-17.143Zm23.334 0h-20v17.143h6.666v-12.858h3.334v12.858H363v-12.858h3.333v12.858h3.334v-17.143Z" fill="#0cbea7"/></svg>